REM MD5 a82f3d1520105a5b56834be397adeab1
FILE "Simple 1500 Series Vol. 9 - The Chess (Japan).bin" BINARY
  TRACK 01 MODE2/2352
    INDEX 01 00:00:00
  TRACK 02 AUDIO
    INDEX 00 01:31:47
    INDEX 01 01:33:47
  TRACK 03 AUDIO
    INDEX 00 05:26:12
    INDEX 01 05:28:12
  TRACK 04 AUDIO
    INDEX 00 08:02:32
    INDEX 01 08:04:32
  TRACK 05 AUDIO
    INDEX 00 10:46:46
    INDEX 01 10:48:46
  TRACK 06 AUDIO
    INDEX 00 12:51:39
    INDEX 01 12:53:39
REM LEADOUT 15:45:56
